<svg version="1.0" width="100" height="100" xmlns="http://www.w3.org/2000/svg" xmlns:xlink="http://www.w3.org/1999/xlink">
<style>
text {
    text-anchor: middle;
    dominant-baseline: middle;
}

rect {
    stroke: black;
    stroke-width: 1;
    opacity: 1.0;
}

.green {
    fill: green;
}

.other {
    fill: gray;
}
</style>
<g>
<rect id="" class="other" x="20" y="86" width="80" height="14" style=""></rect>
<text id="" class="" x="60" y="93" style="font-size:0.5em;">os (windows, linux)</text>
</g>
<g>
<rect id="" class="other" x="84" y="71" width="16" height="15" style=""></rect>
<text id="" class="" x="92" y="78.5" style="font-size:0.25em;">gfx</text>
</g>
<g>
<rect id="" class="other" x="68" y="71" width="16" height="15" style=""></rect>
<text id="" class="" x="76" y="78.5" style="font-size:0.25em;">other</text>
</g>
<g>
<rect id="" class="other" x="52" y="71" width="16" height="15" style=""></rect>
<text id="" class="" x="60" y="78.5" style="font-size:0.25em;">c++</text>
</g>
<g>
<rect id="" class="other" x="36" y="71" width="16" height="15" style=""></rect>
<text id="" class="" x="44" y="78.5" style="font-size:0.25em;">python</text>
</g>
<g>
<rect id="" class="other" x="20" y="71" width="16" height="15" style=""></rect>
<text id="" class="" x="28" y="78.5" style="font-size:0.25em;">git</text>
</g>
<g>
<rect id="" class="green" x="20" y="57" width="80" height="14" style=""></rect>
<text id="" class="" x="60" y="64" style="font-size:0.5em;">lib</text>
</g>
<g>
<rect id="" class="green" x="91" y="43" width="9" height="14" style=""></rect>
<text id="" class="" x="95.5" y="50" style="font-size:0.25em;writing-mode:tb;">plugin</text>
</g>
<g>
<rect id="" class="green" x="82" y="43" width="9" height="14" style=""></rect>
<text id="" class="" x="86.5" y="50" style="font-size:0.25em;writing-mode:tb;">plugin</text>
</g>
<g>
<rect id="" class="green" x="73" y="43" width="9" height="14" style=""></rect>
<text id="" class="" x="77.5" y="50" style="font-size:0.25em;writing-mode:tb;">plugin</text>
</g>
<g>
<rect id="" class="green" x="64" y="43" width="9" height="14" style=""></rect>
<text id="" class="" x="68.5" y="50" style="font-size:0.25em;writing-mode:tb;">plugin</text>
</g>
<g>
<rect id="" class="green" x="56" y="43" width="8" height="14" style=""></rect>
<text id="" class="" x="60" y="50" style="font-size:0.25em;writing-mode:tb;">plugin</text>
</g>
<g>
<rect id="" class="green" x="47" y="43" width="9" height="14" style=""></rect>
<text id="" class="" x="51.5" y="50" style="font-size:0.25em;writing-mode:tb;">plugin</text>
</g>
<g>
<rect id="" class="green" x="38" y="43" width="9" height="14" style=""></rect>
<text id="" class="" x="42.5" y="50" style="font-size:0.25em;writing-mode:tb;">plugin</text>
</g>
<g>
<rect id="" class="green" x="29" y="43" width="9" height="14" style=""></rect>
<text id="" class="" x="33.5" y="50" style="font-size:0.25em;writing-mode:tb;">plugin</text>
</g>
<g>
<rect id="" class="green" x="20" y="43" width="9" height="14" style=""></rect>
<text id="" class="" x="24.5" y="50" style="font-size:0.25em;writing-mode:tb;">plugin</text>
</g>
<g>
<rect id="" class="green" x="20" y="29" width="80" height="14" style=""></rect>
<text id="" class="" x="60" y="36" style="font-size:0.5em;">lib</text>
</g>
<g>
<rect id="" class="green" x="91" y="14" width="9" height="15" style=""></rect>
<text id="" class="" x="95.5" y="21.5" style="font-size:0.19em;writing-mode:tb;">extension</text>
</g>
<g>
<rect id="" class="green" x="82" y="14" width="9" height="15" style=""></rect>
<text id="" class="" x="86.5" y="21.5" style="font-size:0.19em;writing-mode:tb;">extension</text>
</g>
<g>
<rect id="" class="green" x="73" y="14" width="9" height="15" style=""></rect>
<text id="" class="" x="77.5" y="21.5" style="font-size:0.19em;writing-mode:tb;">extension</text>
</g>
<g>
<rect id="" class="green" x="64" y="14" width="9" height="15" style=""></rect>
<text id="" class="" x="68.5" y="21.5" style="font-size:0.19em;writing-mode:tb;">extension</text>
</g>
<g>
<rect id="" class="green" x="56" y="14" width="8" height="15" style=""></rect>
<text id="" class="" x="60" y="21.5" style="font-size:0.19em;writing-mode:tb;">extension</text>
</g>
<g>
<rect id="" class="green" x="47" y="14" width="9" height="15" style=""></rect>
<text id="" class="" x="51.5" y="21.5" style="font-size:0.19em;writing-mode:tb;">extension</text>
</g>
<g>
<rect id="" class="green" x="38" y="14" width="9" height="15" style=""></rect>
<text id="" class="" x="42.5" y="21.5" style="font-size:0.19em;writing-mode:tb;">extension</text>
</g>
<g>
<rect id="" class="green" x="29" y="14" width="9" height="15" style=""></rect>
<text id="" class="" x="33.5" y="21.5" style="font-size:0.19em;writing-mode:tb;">extension</text>
</g>
<g>
<rect id="" class="green" x="20" y="14" width="9" height="15" style=""></rect>
<text id="" class="" x="24.5" y="21.5" style="font-size:0.19em;writing-mode:tb;">extension</text>
</g>
<g>
<rect id="" class="green" x="73" y="0" width="27" height="14" style=""></rect>
<text id="" class="" x="86.5" y="7" style="font-size:0.3em;">app</text>
</g>
<g>
<rect id="" class="green" x="47" y="0" width="26" height="14" style=""></rect>
<text id="" class="" x="60" y="7" style="font-size:0.3em;">app</text>
</g>
<g>
<rect id="" class="green" x="20" y="0" width="27" height="14" style=""></rect>
<text id="" class="" x="33.5" y="7" style="font-size:0.3em;">app</text>
</g>
<g>
<rect id="" class="green" x="0" y="0" width="20" height="43" style=""></rect>
<text id="" class="" x="10" y="21.5" style="writing-mode:tb;font-size:0.5em;">launcher</text>
</g>
</svg>
